<svg width="768" height="522" viewBox="0 0 768 522" fill="none" xmlns="http://www.w3.org/2000/svg">
<mask id="mask0_1406_10085" style="mask-type:luminance" maskUnits="userSpaceOnUse" x="45" y="110" width="445" height="45">
<path d="M45.5 110.769H489.5V154.269H45.5V110.769Z" fill="white"/>
</mask>
<g mask="url(#mask0_1406_10085)">
<g opacity="0.100006">
<path fill-rule="evenodd" clip-rule="evenodd" d="M267.5 154.269C389.773 154.269 489.5 144.498 489.5 132.52C489.5 120.54 389.773 110.769 267.5 110.769C145.227 110.769 45.5 120.54 45.5 132.52C45.5 144.498 145.227 154.269 267.5 154.269Z" fill="#0D173D"/>
</g>
</g>
<mask id="mask1_1406_10085" style="mask-type:luminance" maskUnits="userSpaceOnUse" x="278" y="244" width="445" height="45">
<path d="M278.5 244.769H722.5V288.268H278.5V244.769Z" fill="white"/>
</mask>
<g mask="url(#mask1_1406_10085)">
<g opacity="0.100006">
<path fill-rule="evenodd" clip-rule="evenodd" d="M500.5 288.268C622.773 288.268 722.5 278.499 722.5 266.519C722.5 254.54 622.773 244.768 500.5 244.768C378.227 244.768 278.5 254.54 278.5 266.519C278.5 278.499 378.227 288.268 500.5 288.268Z" fill="#0D173D"/>
</g>
</g>
<mask id="mask2_1406_10085" style="mask-type:luminance" maskUnits="userSpaceOnUse" x="145" y="462" width="445" height="45">
<path d="M145.5 462.768H589.5V506.268H145.5V462.768Z" fill="white"/>
</mask>
<g mask="url(#mask2_1406_10085)">
<g opacity="0.100006">
<path fill-rule="evenodd" clip-rule="evenodd" d="M367.5 506.268C489.773 506.268 589.5 496.499 589.5 484.519C589.5 472.539 489.773 462.768 367.5 462.768C245.227 462.768 145.5 472.539 145.5 484.519C145.5 496.499 245.227 506.268 367.5 506.268Z" fill="#0D173D"/>
</g>
</g>
<path fill-rule="evenodd" clip-rule="evenodd" d="M294.185 52.4577C294.185 52.4577 279.508 44.439 266.188 49.3324C252.868 54.2244 242.13 60.4777 237.917 61.5644C233.704 62.6524 212.909 66.4577 210.666 67.0004C208.425 67.543 206.453 67.883 206.453 67.883C206.453 67.883 205.84 68.4937 205.636 69.8537C205.433 71.2124 205.433 71.4164 205.433 71.4164L202.646 72.571C202.646 72.571 201.626 87.3177 204.345 94.6564C207.062 101.996 208.966 107.434 208.966 107.434C208.966 107.434 246.209 99.5497 253.002 99.2791C259.798 99.0071 270.128 100.094 281.001 99.007C291.876 97.919 295.952 96.8324 295.952 96.8324C295.952 96.8324 301.117 74.5417 294.185 52.4577Z" fill="#0D173D"/>
<path d="M294.185 52.4577C294.185 52.4577 279.508 44.439 266.188 49.3324C252.868 54.2244 242.13 60.4777 237.917 61.5644C233.704 62.6524 212.909 66.4577 210.666 67.0004C208.425 67.543 206.453 67.8831 206.453 67.8831C206.453 67.8831 205.84 68.4937 205.636 69.8537C205.433 71.2124 205.433 71.4164 205.433 71.4164L202.646 72.571C202.646 72.571 201.626 87.3177 204.345 94.6564C207.062 101.996 208.966 107.434 208.966 107.434C208.966 107.434 246.209 99.5497 253.002 99.2791C259.798 99.0071 270.128 100.094 281.001 99.007C291.876 97.919 295.952 96.8324 295.952 96.8324C295.952 96.8324 301.117 74.5417 294.185 52.4577Z" stroke="#0D173D" stroke-width="2" stroke-miterlimit="2.613" stroke-linecap="round" stroke-linejoin="round"/>
<path fill-rule="evenodd" clip-rule="evenodd" d="M205.909 68.8099C205.909 68.8099 185.862 71.6885 178.386 71.0072C170.911 70.3285 157.727 59.7272 136.253 62.9885C114.778 66.2512 96.0221 73.3178 90.0421 73.4538C84.0621 73.5899 77.8101 71.5512 73.0514 71.5512C68.2941 71.5512 65.7141 74.4059 64.3541 79.0272C62.9941 83.6472 65.1688 86.7739 65.1688 86.7739C65.1688 86.7739 54.4328 85.6872 51.8488 90.4445C49.2674 95.2005 51.7141 100.91 54.1608 105.666C56.6061 110.423 62.5861 119.121 63.8101 126.461C65.0341 133.801 68.0234 136.655 68.0234 136.655C68.0234 136.655 68.2941 138.966 71.4221 140.325C74.5474 141.683 74.4114 139.917 76.5861 139.917C78.7608 139.917 79.1688 140.325 81.4794 138.286C83.7888 136.247 84.0621 137.878 86.2368 135.703C88.4114 133.529 88.5461 132.713 86.9168 129.723C85.2848 126.733 83.5181 125.51 84.3328 121.841C85.1488 118.171 85.2834 115.043 84.0621 112.326C82.8381 109.609 82.8381 104.171 83.5181 102.811C84.1981 101.453 104.447 98.4632 115.321 100.909C126.195 103.355 140.057 103.899 150.114 103.083C160.171 102.269 164.794 102.269 171.047 103.899C177.298 105.53 182.463 106.074 185.997 106.074C189.531 106.074 195.781 105.802 198.229 106.074C200.675 106.346 208.966 107.434 208.966 107.434C208.966 107.434 207.062 101.997 204.345 94.6565C201.626 87.3179 202.646 72.5712 202.646 72.5712L205.433 71.4165C205.433 71.4165 205.433 71.2125 205.635 69.8539C205.699 69.4365 205.799 69.0899 205.909 68.8099Z" fill="white"/>
<path d="M205.909 68.8099C205.909 68.8099 185.862 71.6885 178.386 71.0072C170.911 70.3285 157.727 59.7272 136.253 62.9885C114.778 66.2512 96.0221 73.3179 90.0421 73.4539C84.0621 73.5899 77.8101 71.5512 73.0514 71.5512C68.2941 71.5512 65.7141 74.4059 64.3541 79.0272C62.9941 83.6472 65.1688 86.7739 65.1688 86.7739C65.1688 86.7739 54.4328 85.6872 51.8488 90.4445C49.2674 95.2005 51.7141 100.91 54.1608 105.666C56.6061 110.423 62.5861 119.121 63.8101 126.461C65.0341 133.801 68.0234 136.655 68.0234 136.655C68.0234 136.655 68.2941 138.966 71.4221 140.325C74.5474 141.683 74.4114 139.917 76.5861 139.917C78.7608 139.917 79.1688 140.325 81.4794 138.286C83.7888 136.247 84.0621 137.878 86.2368 135.703C88.4114 133.529 88.5461 132.713 86.9168 129.723C85.2848 126.733 83.5181 125.51 84.3328 121.841C85.1488 118.171 85.2834 115.043 84.0621 112.326C82.8381 109.609 82.8381 104.171 83.5181 102.811C84.1981 101.453 104.447 98.4632 115.321 100.909C126.195 103.355 140.057 103.899 150.114 103.083C160.171 102.269 164.794 102.269 171.047 103.899C177.298 105.53 182.463 106.074 185.997 106.074C189.531 106.074 195.781 105.802 198.229 106.074C200.675 106.346 208.966 107.434 208.966 107.434C208.966 107.434 207.062 101.997 204.345 94.6565C201.626 87.3179 202.646 72.5712 202.646 72.5712L205.433 71.4165C205.433 71.4165 205.433 71.2125 205.635 69.8539C205.699 69.4365 205.799 69.0899 205.909 68.8099Z" stroke="#0D173D" stroke-width="2" stroke-miterlimit="2.613" stroke-linecap="round" stroke-linejoin="round"/>
<path d="M65.1693 86.7735C65.1693 86.7735 84.06 85.9575 93.576 84.3268C103.088 82.6962 116.409 79.1628 124.563 76.7162C132.719 74.2695 139.921 72.2295 153.243 75.2202C166.563 78.2108 167.377 78.4828 176.62 78.4828C185.863 78.4828 202.645 72.5722 202.645 72.5722" stroke="#0D173D" stroke-width="2" stroke-miterlimit="2.613" stroke-linecap="round" stroke-linejoin="round"/>
<path d="M106.622 87.1804C106.622 87.1804 127.552 92.7524 144.95 90.9858C162.346 89.2191 163.434 87.5884 163.434 87.5884" stroke="#0D173D" stroke-width="2" stroke-miterlimit="2.613" stroke-linecap="round" stroke-linejoin="round"/>
<path d="M115.863 73.4531C115.863 73.4531 143.182 74.2678 152.018 70.4625" stroke="#0D173D" stroke-width="2" stroke-miterlimit="2.613" stroke-linecap="round" stroke-linejoin="round"/>
<path fill-rule="evenodd" clip-rule="evenodd" d="M294.185 52.4577C294.185 52.4577 311.99 48.1711 319.601 44.9084C327.213 41.6471 341.076 35.8031 348.278 34.5791C355.485 33.3564 359.697 32.4044 364.046 30.9097C368.396 29.4137 381.172 28.1911 387.425 29.4137C393.676 30.6377 402.918 38.3857 408.764 40.2884C414.606 42.1911 416.917 39.8791 416.917 39.8791C416.917 39.8791 420.994 44.6377 426.294 45.8604C431.597 47.0831 439.48 42.8697 441.928 42.5977C444.373 42.3271 448.313 45.7244 447.634 48.3071C446.954 50.8897 442.605 52.3844 442.605 52.3844L442.741 56.0537C442.741 56.0537 447.906 52.5204 451.576 54.2871C455.245 56.0537 460.274 52.9284 462.992 51.0244C465.712 49.1231 467.478 50.6177 467.478 50.6177C467.478 50.6177 459.458 60.2671 457.965 61.8991C456.469 63.5297 452.664 64.3444 452.664 64.3444C452.664 64.3444 449.809 71.2764 449.13 72.6351C448.45 73.9951 444.781 71.5484 444.781 71.5484C444.781 71.5484 438.801 72.9071 435.402 75.0817C432.004 77.2577 429.693 76.3057 427.248 73.1804C424.801 70.0537 424.529 66.9271 424.529 66.9271C424.529 66.9271 417.597 68.5591 414.2 68.2871C410.801 68.0137 406.996 68.0137 406.996 68.0137C406.996 68.0137 407.404 81.3337 402.376 88.8097C397.346 96.2857 395.85 98.0511 395.578 99.2737C395.308 100.498 394.898 106.478 394.628 107.156C394.354 107.836 399.25 108.379 405.502 110.69C411.756 113 423.714 112.73 426.026 112.594C428.336 112.458 429.016 112.184 429.016 112.184C429.016 112.184 431.462 105.66 432.278 104.572C433.094 103.486 436.084 103.078 437.308 102.806C438.53 102.534 441.521 102.67 442.744 103.486C443.966 104.3 448.18 108.65 448.724 109.466C449.269 110.282 450.084 113.679 450.354 114.63C450.628 115.582 451.578 117.078 453.482 119.388C455.384 121.698 454.838 122.514 455.112 124.824C455.384 127.135 456.88 127.815 455.657 130.124C454.433 132.435 453.753 134.882 453.617 136.378C453.482 137.872 451.578 138.416 448.045 138.416C444.51 138.416 436.765 138.687 433.501 139.095C430.24 139.503 400.609 142.22 396.261 142.22C391.912 142.22 377.233 143.715 373.02 143.172C368.806 142.628 367.445 140.182 367.584 138.279C367.718 136.376 369.078 129.715 367.445 126.726C365.816 123.735 363.098 116.124 362.01 104.707C360.922 93.2911 362.418 89.3484 362.418 89.3484C362.418 89.3484 356.029 89.7564 351.953 89.7564H343.254C343.254 89.7564 316.48 95.4644 307.78 96.6884C299.081 97.9111 295.952 96.8324 295.952 96.8324C295.952 96.8324 301.117 74.5417 294.185 52.4577Z" fill="white"/>
<path d="M294.185 52.4577C294.185 52.4577 311.99 48.1711 319.601 44.9084C327.213 41.6471 341.076 35.8031 348.278 34.5791C355.485 33.3564 359.697 32.4044 364.046 30.9097C368.396 29.4137 381.172 28.1911 387.425 29.4137C393.676 30.6377 402.918 38.3857 408.764 40.2884C414.606 42.1911 416.917 39.8791 416.917 39.8791C416.917 39.8791 420.994 44.6377 426.294 45.8604C431.597 47.0831 439.48 42.8697 441.928 42.5977C444.373 42.3271 448.313 45.7244 447.634 48.3071C446.954 50.8897 442.605 52.3844 442.605 52.3844L442.741 56.0537C442.741 56.0537 447.906 52.5204 451.576 54.2871C455.245 56.0537 460.274 52.9284 462.992 51.0244C465.712 49.1231 467.478 50.6177 467.478 50.6177C467.478 50.6177 459.458 60.2671 457.965 61.8991C456.469 63.5297 452.664 64.3444 452.664 64.3444C452.664 64.3444 449.809 71.2764 449.13 72.6351C448.45 73.9951 444.781 71.5484 444.781 71.5484C444.781 71.5484 438.801 72.9071 435.402 75.0817C432.004 77.2577 429.693 76.3057 427.248 73.1804C424.801 70.0537 424.529 66.9271 424.529 66.9271C424.529 66.9271 417.597 68.5591 414.2 68.2871C410.801 68.0137 406.996 68.0137 406.996 68.0137C406.996 68.0137 407.404 81.3337 402.376 88.8097C397.346 96.2857 395.85 98.0511 395.578 99.2737C395.308 100.498 394.898 106.478 394.628 107.156C394.354 107.836 399.25 108.379 405.502 110.69C411.756 113 423.714 112.73 426.026 112.594C428.336 112.458 429.016 112.184 429.016 112.184C429.016 112.184 431.462 105.66 432.278 104.572C433.094 103.486 436.084 103.078 437.308 102.806C438.53 102.534 441.521 102.67 442.744 103.486C443.966 104.3 448.18 108.65 448.724 109.466C449.269 110.282 450.084 113.679 450.354 114.63C450.628 115.582 451.578 117.078 453.482 119.388C455.384 121.698 454.838 122.514 455.112 124.824C455.384 127.135 456.88 127.815 455.657 130.124C454.433 132.435 453.753 134.882 453.617 136.378C453.482 137.872 451.578 138.416 448.045 138.416C444.51 138.416 436.765 138.687 433.501 139.095C430.24 139.503 400.609 142.22 396.261 142.22C391.912 142.22 377.233 143.715 373.02 143.172C368.806 142.628 367.445 140.182 367.584 138.279C367.718 136.376 369.078 129.715 367.445 126.726C365.816 123.735 363.098 116.124 362.01 104.707C360.922 93.2911 362.418 89.3484 362.418 89.3484C362.418 89.3484 356.029 89.7564 351.953 89.7564H343.254C343.254 89.7564 316.48 95.4644 307.78 96.6884C299.081 97.9111 295.952 96.8324 295.952 96.8324C295.952 96.8324 301.117 74.5417 294.185 52.4577Z" stroke="#0D173D" stroke-width="2" stroke-miterlimit="2.613" stroke-linecap="round" stroke-linejoin="round"/>
<mask id="mask3_1406_10085" style="mask-type:luminance" maskUnits="userSpaceOnUse" x="298" y="73" width="49" height="23">
<path d="M298.876 73.1987H346.368V95.3347H298.876V73.1987Z" fill="white"/>
</mask>
<g mask="url(#mask3_1406_10085)">
<g opacity="0.800003">
<path fill-rule="evenodd" clip-rule="evenodd" d="M346.369 73.2148C346.135 74.3655 341.951 80.7242 342.098 87.7922C326.05 92.0615 308.969 95.3002 298.906 95.3348C298.815 93.5508 298.881 90.7775 299.857 87.5882C299.857 87.5882 301.414 82.4975 304.615 79.1615C333.411 73.8028 334.735 73.0682 346.369 73.2148Z" fill="#1570EF"/>
</g>
</g>
<path d="M367.445 126.726C367.445 126.726 364.185 113.949 367.719 102.531C371.252 91.1152 373.427 87.8539 373.427 83.2326C373.427 78.6112 374.243 68.2819 376.417 60.9419" stroke="#0D173D" stroke-width="2" stroke-miterlimit="2.613" stroke-linecap="round" stroke-linejoin="round"/>
<path d="M406.996 68.0143C406.996 68.0143 408.764 55.5063 399.524 50.6129" stroke="#0D173D" stroke-width="2" stroke-miterlimit="2.613" stroke-linecap="round" stroke-linejoin="round"/>
<path d="M444.755 43.4519C444.755 43.4519 439.211 43.5452 436.219 46.8066C433.229 50.0692 433.638 51.2252 434.317 52.3799C434.998 53.5346 436.561 53.3986 436.561 53.3986" stroke="#0D173D" stroke-width="2" stroke-miterlimit="2.613" stroke-linecap="round" stroke-linejoin="round"/>
<path fill-rule="evenodd" clip-rule="evenodd" d="M467.478 50.6172C467.478 50.6172 475.638 49.5906 478.763 45.2412C481.891 40.8932 479.307 33.2826 476.726 31.9226C474.143 30.5626 474.143 34.3172 468.57 26.0786C462.998 17.8386 459.734 14.9319 454.435 15.0679C449.133 15.2039 447.367 17.8386 447.367 17.8386C447.367 17.8386 442.067 15.4426 437.446 17.8386C432.825 20.2332 430.513 22.6799 427.523 27.8452C424.534 33.0092 416.917 39.8799 416.917 39.8799C416.917 39.8799 420.995 44.6372 426.294 45.8612C431.597 47.0839 439.479 42.8692 441.927 42.5986C444.373 42.3266 448.313 45.7252 447.634 48.3066C446.954 50.8892 442.606 52.3839 442.606 52.3839L442.741 56.0546C442.741 56.0546 447.906 52.5199 451.575 54.2866C455.245 56.0546 460.275 52.9279 462.993 51.0252C465.711 49.1226 467.478 50.6172 467.478 50.6172Z" fill="#0D173D"/>
<path d="M467.478 50.6172C467.478 50.6172 475.638 49.5906 478.763 45.2412C481.891 40.8932 479.307 33.2826 476.726 31.9226C474.143 30.5626 474.143 34.3172 468.57 26.0786C462.998 17.8386 459.734 14.9319 454.435 15.0679C449.133 15.2039 447.367 17.8386 447.367 17.8386C447.367 17.8386 442.067 15.4426 437.446 17.8386C432.825 20.2332 430.513 22.6799 427.523 27.8452C424.534 33.0092 416.917 39.8799 416.917 39.8799C416.917 39.8799 420.995 44.6372 426.294 45.8612C431.597 47.0839 439.479 42.8692 441.927 42.5986C444.373 42.3266 448.313 45.7252 447.634 48.3066C446.954 50.8892 442.606 52.3839 442.606 52.3839L442.741 56.0546C442.741 56.0546 447.906 52.5199 451.575 54.2866C455.245 56.0546 460.275 52.9279 462.993 51.0252C465.711 49.1226 467.478 50.6172 467.478 50.6172Z" stroke="#0D173D" stroke-width="2" stroke-miterlimit="2.613" stroke-linecap="round" stroke-linejoin="round"/>
<path d="M394.628 107.157C394.628 107.157 394.36 110.481 394.089 114.016C393.817 117.549 392.865 119.86 392.865 119.86C392.865 119.86 397.078 117.413 408.224 120.132C419.37 122.85 425.485 122.306 430.377 122.17C435.27 122.034 435.678 120.268 436.086 119.181C436.493 118.093 437.445 114.83 438.534 113.2C439.621 111.569 444.106 111.161 444.106 111.161" stroke="#0D173D" stroke-width="2" stroke-miterlimit="2.613" stroke-linecap="round" stroke-linejoin="round"/>
<path d="M362.418 89.3489C362.418 89.3489 371.638 89.3743 373.351 84.7049" stroke="#0D173D" stroke-width="2" stroke-miterlimit="2.613" stroke-linecap="round" stroke-linejoin="round"/>
<path d="M345.026 84.9284C345.026 84.9284 345.57 78.9484 348.559 75.9577C351.551 72.9684 367.318 67.8031 367.318 67.8031" stroke="#0D173D" stroke-width="2" stroke-miterlimit="2.613" stroke-linecap="round" stroke-linejoin="round"/>
<path d="M297.565 84.6445C297.565 84.6445 302.62 81.6659 305.61 68.6179" stroke="#0D173D" stroke-width="2" stroke-miterlimit="2.613" stroke-linecap="round" stroke-linejoin="round"/>
<path d="M83.5183 102.812C83.5183 102.812 79.1769 102.731 76.8663 104.089C74.5543 105.449 69.2543 102.731 69.2543 102.731" stroke="#0D173D" stroke-width="2" stroke-miterlimit="2.613" stroke-linecap="round" stroke-linejoin="round"/>
<path d="M419.78 126.785C419.78 126.785 415.024 128.417 405.237 129.231C395.451 130.047 394.637 129.095 394.637 129.095" stroke="#0D173D" stroke-width="2" stroke-miterlimit="2.613" stroke-linecap="round" stroke-linejoin="round"/>
<path d="M382.539 86.9603C382.539 86.9603 385.664 93.4843 387.84 95.115C390.015 96.7456 393.006 96.6096 393.006 96.6096" stroke="#0D173D" stroke-width="2" stroke-miterlimit="2.613" stroke-linecap="round" stroke-linejoin="round"/>
<path d="M382.404 98.6484C382.404 98.6484 377.92 100.959 376.696 107.483C375.472 114.007 379.685 119.036 379.685 119.036" stroke="#0D173D" stroke-width="2" stroke-miterlimit="2.613" stroke-linecap="round" stroke-linejoin="round"/>
<path d="M392.864 119.859C392.864 119.859 390.286 122.842 386.616 124.337" stroke="#0D173D" stroke-width="2" stroke-miterlimit="2.613" stroke-linecap="round" stroke-linejoin="round"/>
<path fill-rule="evenodd" clip-rule="evenodd" d="M541.723 171.532C541.723 171.532 527.044 165.028 513.724 171.293C500.405 177.56 489.667 184.92 485.453 186.441C481.24 187.963 460.445 193.912 458.203 194.687C455.961 195.461 453.989 196.004 453.989 196.004C453.989 196.004 453.377 196.679 453.173 198.059C452.969 199.439 452.969 199.643 452.969 199.643L450.183 201.085C450.183 201.085 449.164 215.936 451.883 222.996C454.6 230.055 456.503 235.295 456.503 235.295C456.503 235.295 493.745 223.572 500.539 222.599C507.336 221.627 517.664 221.649 528.539 219.441C539.412 217.232 543.489 215.724 543.489 215.724C543.489 215.724 548.653 192.901 541.723 171.532Z" fill="#0D173D"/>
<path d="M541.723 171.532C541.723 171.532 527.044 165.028 513.724 171.293C500.405 177.56 489.667 184.92 485.453 186.441C481.24 187.963 460.445 193.912 458.203 194.687C455.961 195.461 453.989 196.004 453.989 196.004C453.989 196.004 453.377 196.679 453.173 198.059C452.969 199.439 452.969 199.643 452.969 199.643L450.183 201.085C450.183 201.085 449.164 215.936 451.883 222.996C454.6 230.055 456.503 235.295 456.503 235.295C456.503 235.295 493.745 223.572 500.539 222.599C507.336 221.627 517.664 221.649 528.539 219.441C539.412 217.232 543.489 215.724 543.489 215.724C543.489 215.724 548.653 192.901 541.723 171.532Z" stroke="#0D173D" stroke-width="2" stroke-miterlimit="10" stroke-linejoin="round"/>
<path fill-rule="evenodd" clip-rule="evenodd" d="M453.445 196.987C453.445 196.987 433.399 201.931 425.924 202.023C418.448 202.114 405.265 192.872 383.789 198.348C362.315 203.824 343.56 212.826 337.579 213.579C331.599 214.331 325.347 212.936 320.589 213.427C315.832 213.918 313.251 217.039 311.891 221.8C310.531 226.562 312.707 229.463 312.707 229.463C312.707 229.463 301.969 229.483 299.387 234.506C296.805 239.53 299.251 244.986 301.697 249.49C304.143 253.995 310.124 262.076 311.347 269.291C312.571 276.504 315.56 279.05 315.56 279.05C315.56 279.05 315.832 281.332 318.959 282.368C322.085 283.406 321.948 281.654 324.124 281.428C326.299 281.204 326.705 281.571 329.016 279.292C331.327 277.015 331.599 278.62 333.773 276.22C335.948 273.822 336.084 272.992 334.453 270.171C332.823 267.348 331.056 266.307 331.869 262.554C332.685 258.799 332.82 255.659 331.599 253.067C330.376 250.475 330.375 245.039 331.055 243.608C331.735 242.18 351.984 237.102 362.86 238.427C373.732 239.752 387.593 238.866 397.651 237.014C407.709 235.16 412.331 234.684 418.584 235.671C424.835 236.658 430 236.668 433.533 236.304C437.068 235.939 443.319 235.023 445.765 235.043C448.213 235.062 456.503 235.295 456.503 235.295C456.503 235.295 454.6 230.055 451.883 222.995C449.164 215.936 450.183 201.084 450.183 201.084L452.969 199.642C452.969 199.642 452.969 199.438 453.173 198.059C453.235 197.635 453.337 197.278 453.445 196.987Z" fill="white"/>
<path d="M453.445 196.987C453.445 196.987 433.399 201.931 425.924 202.023C418.448 202.114 405.265 192.872 383.789 198.348C362.315 203.824 343.56 212.826 337.579 213.579C331.599 214.331 325.347 212.936 320.589 213.427C315.832 213.918 313.251 217.039 311.891 221.8C310.531 226.562 312.707 229.463 312.707 229.463C312.707 229.463 301.969 229.483 299.387 234.506C296.805 239.53 299.251 244.986 301.697 249.49C304.143 253.995 310.124 262.076 311.347 269.291C312.571 276.504 315.56 279.05 315.56 279.05C315.56 279.05 315.832 281.332 318.959 282.368C322.085 283.406 321.948 281.654 324.124 281.428C326.299 281.204 326.705 281.571 329.016 279.292C331.327 277.015 331.599 278.62 333.773 276.22C335.948 273.822 336.084 272.992 334.453 270.171C332.823 267.348 331.056 266.307 331.869 262.554C332.685 258.799 332.82 255.659 331.599 253.067C330.376 250.475 330.375 245.039 331.055 243.608C331.735 242.18 351.984 237.102 362.86 238.427C373.732 239.752 387.593 238.866 397.651 237.014C407.709 235.16 412.331 234.684 418.584 235.671C424.835 236.658 430 236.668 433.533 236.304C437.068 235.939 443.319 235.023 445.765 235.043C448.213 235.062 456.503 235.295 456.503 235.295C456.503 235.295 454.6 230.055 451.883 222.995C449.164 215.936 450.183 201.084 450.183 201.084L452.969 199.642C452.969 199.642 452.969 199.438 453.173 198.059C453.235 197.635 453.337 197.278 453.445 196.987Z" stroke="#0D173D" stroke-width="2" stroke-miterlimit="10" stroke-linejoin="round"/>
<path fill-rule="evenodd" clip-rule="evenodd" d="M424.052 208.686L424.26 210.674L423.416 210.759L422.617 210.839L421.857 210.911L421.135 210.978L420.445 211.038L419.787 211.09L419.151 211.135L418.536 211.172L417.941 211.204L417.359 211.228L416.787 211.244L416.221 211.254L415.661 211.256L415.097 211.25L414.531 211.236L413.956 211.215L413.369 211.186L412.771 211.151L412.151 211.106L411.511 211.054L410.843 210.995L410.144 210.928L409.413 210.852L408.643 210.77L407.833 210.679L406.976 210.58L406.071 210.474L405.112 210.359L404.093 210.236L403.016 210.106L401.873 209.967L400.661 209.819L400.897 207.836L402.109 207.984L403.252 208.123L404.331 208.254L405.347 208.376L406.301 208.491L407.203 208.596L408.055 208.694L408.859 208.784L409.617 208.866L410.339 208.94L411.024 209.006L411.675 209.064L412.299 209.114L412.897 209.158L413.476 209.191L414.036 209.219L414.585 209.24L415.128 209.252L415.663 209.258L416.197 209.256L416.737 209.247L417.284 209.232L417.844 209.208L418.417 209.179L419.013 209.142L419.631 209.098L420.277 209.047L420.955 208.988L421.667 208.923L422.417 208.851L423.211 208.771L424.052 208.686ZM400.897 207.836L400.661 209.819L399.448 209.683L398.268 209.571L397.123 209.483L396.011 209.418L394.929 209.376L393.877 209.355L392.856 209.356L391.859 209.378L390.889 209.418L389.943 209.478L389.021 209.556L388.12 209.652L387.239 209.764L386.376 209.892L385.531 210.036L384.701 210.194L383.888 210.367L383.085 210.552L382.297 210.751L381.519 210.963L380.747 211.186L379.984 211.419L379.227 211.662L378.475 211.915L377.727 212.178L376.981 212.447L376.236 212.726L375.489 213.011L374.743 213.302L373.992 213.599L373.237 213.9L372.475 214.207L371.727 212.354L372.488 212.047L373.249 211.742L374.008 211.442L374.767 211.147L375.525 210.856L376.288 210.572L377.052 210.295L377.823 210.026L378.599 209.764L379.383 209.512L380.175 209.27L380.976 209.039L381.788 208.819L382.613 208.611L383.451 208.416L384.304 208.236L385.172 208.07L386.057 207.919L386.961 207.784L387.883 207.667L388.828 207.567L389.792 207.487L390.779 207.423L391.791 207.382L392.828 207.359L393.892 207.358L394.983 207.38L396.104 207.423L397.252 207.49L398.435 207.58L399.648 207.696L400.897 207.836ZM371.727 212.354L372.475 214.207L371.692 214.52L370.883 214.843L370.045 215.174L369.183 215.511L368.297 215.856L367.388 216.207L366.46 216.562L365.513 216.923L364.547 217.287L363.567 217.654L362.573 218.022L361.567 218.392L360.549 218.764L359.524 219.136L358.492 219.508L357.451 219.879L356.409 220.246L355.364 220.612L354.316 220.974L353.271 221.332L352.229 221.686L351.189 222.034L350.156 222.375L349.131 222.708L348.115 223.036L347.107 223.354L346.112 223.663L345.133 223.963L344.167 224.252L343.219 224.531L342.289 224.796L341.379 225.05L340.847 223.124L341.743 222.875L342.659 222.612L343.596 222.338L344.549 222.051L345.52 221.755L346.505 221.448L347.503 221.132L348.512 220.808L349.528 220.476L350.555 220.138L351.587 219.792L352.624 219.44L353.663 219.084L354.703 218.726L355.743 218.362L356.781 217.995L357.812 217.627L358.841 217.258L359.861 216.887L360.875 216.518L361.876 216.148L362.864 215.782L363.841 215.416L364.801 215.054L365.744 214.696L366.667 214.342L367.573 213.992L368.453 213.651L369.309 213.315L370.143 212.986L370.949 212.666L371.727 212.354ZM340.847 223.124L341.379 225.05L340.448 225.299L339.468 225.547L338.445 225.795L337.384 226.042L336.289 226.287L335.168 226.53L334.024 226.77L332.859 227.007L331.685 227.242L330.499 227.472L329.312 227.698L328.128 227.918L326.949 228.132L325.784 228.342L324.637 228.544L323.513 228.739L322.416 228.926L321.355 229.104L320.331 229.275L319.349 229.436L318.416 229.588L317.537 229.728L316.719 229.858L315.964 229.978L315.277 230.084L314.667 230.178L314.135 230.26L313.688 230.327L313.331 230.38L313.071 230.419L312.909 230.443L312.853 230.451L312.56 228.475L312.612 228.467L312.772 228.443L313.031 228.406L313.385 228.352L313.831 228.284L314.359 228.203L314.968 228.11L315.649 228.003L316.404 227.886L317.219 227.756L318.093 227.616L319.024 227.464L320 227.304L321.02 227.135L322.079 226.958L323.169 226.77L324.289 226.576L325.431 226.375L326.589 226.167L327.76 225.954L328.937 225.735L330.117 225.511L331.295 225.282L332.461 225.05L333.615 224.814L334.747 224.575L335.857 224.336L336.935 224.094L337.98 223.851L338.983 223.608L339.94 223.366L340.847 223.124ZM312.853 230.451C312.307 230.531 311.8 230.154 311.719 229.608C311.637 229.062 312.016 228.555 312.56 228.475L312.853 230.451Z" fill="#0D173D"/>
<path fill-rule="evenodd" clip-rule="evenodd" d="M410.124 219.615C410.414 219.147 411.032 219.005 411.5 219.299C411.966 219.591 412.11 220.207 411.818 220.675L410.124 219.615ZM410.124 219.615L411.818 220.675L411.742 220.781L411.692 220.84L411.622 220.912L411.54 220.988L411.44 221.067L411.325 221.152L411.192 221.24L411.037 221.336L410.852 221.439L410.641 221.549L410.396 221.669L410.117 221.797L409.802 221.933L409.442 222.08L409.041 222.236L408.594 222.401L408.094 222.576L407.542 222.761L406.937 222.956L406.27 223.163L405.545 223.377L404.754 223.603L403.896 223.839L402.969 224.084L401.968 224.34L400.89 224.608L399.737 224.884L398.501 225.172L397.182 225.471L395.774 225.779L394.278 226.097L392.69 226.427L392.284 224.471L393.864 224.143L395.349 223.827L396.744 223.52L398.05 223.225L399.273 222.94L400.414 222.667L401.477 222.404L402.461 222.151L403.373 221.909L404.21 221.679L404.984 221.459L405.69 221.249L406.333 221.051L406.917 220.864L407.442 220.687L407.912 220.521L408.33 220.367L408.702 220.224L409.024 220.092L409.301 219.972L409.538 219.863L409.737 219.765L409.897 219.681L410.024 219.611L410.12 219.552L410.188 219.507L410.226 219.479L410.242 219.465L410.237 219.469L410.217 219.489L410.193 219.519L410.124 219.615ZM392.284 224.471L392.69 226.427L391.024 226.745L389.344 227.024L387.653 227.264L385.957 227.471L384.261 227.641L382.565 227.78L380.877 227.889L379.202 227.972L377.541 228.028L375.904 228.059L374.289 228.069L372.704 228.059L371.153 228.029L369.641 227.985L368.17 227.925L366.746 227.855L365.374 227.772L364.058 227.681L362.802 227.584L361.612 227.483L360.489 227.377L359.442 227.272L358.472 227.167L357.586 227.064L356.786 226.968L356.078 226.877L355.466 226.795L354.953 226.724L354.546 226.665L354.25 226.62L354.068 226.592L354 226.581L354.318 224.609L354.372 224.617L354.545 224.645L354.833 224.689L355.23 224.747L355.732 224.816L356.33 224.896L357.029 224.985L357.816 225.081L358.69 225.181L359.646 225.284L360.68 225.389L361.785 225.493L362.961 225.593L364.2 225.689L365.497 225.779L366.852 225.86L368.256 225.929L369.706 225.988L371.197 226.032L372.725 226.06L374.286 226.071L375.874 226.061L377.485 226.031L379.114 225.976L380.761 225.896L382.414 225.788L384.073 225.652L385.733 225.484L387.388 225.284L389.037 225.049L390.669 224.779L392.284 224.471ZM354 226.581C353.456 226.492 353.086 225.979 353.172 225.435C353.261 224.891 353.773 224.521 354.318 224.609L354 226.581Z" fill="#0D173D"/>
<path fill-rule="evenodd" clip-rule="evenodd" d="M399.083 203.315C399.569 203.055 400.174 203.24 400.435 203.727C400.695 204.212 400.513 204.818 400.026 205.078L399.083 203.315ZM399.083 203.315L400.026 205.078L399.091 205.539L398.065 205.976L396.955 206.394L395.77 206.791L394.513 207.171L393.195 207.535L391.821 207.88L390.398 208.211L388.938 208.526L387.447 208.826L385.933 209.11L384.403 209.379L382.867 209.635L381.333 209.875L379.809 210.102L378.305 210.314L376.823 210.512L375.379 210.696L373.977 210.868L372.625 211.026L371.335 211.17L370.114 211.299L368.967 211.418L367.906 211.522L366.938 211.615L366.073 211.694L365.315 211.76L364.678 211.815L364.167 211.856L363.789 211.887L363.557 211.904L363.477 211.911L363.326 209.919L363.401 209.912L363.63 209.895L364.001 209.866L364.506 209.824L365.138 209.77L365.889 209.704L366.749 209.626L367.709 209.535L368.763 209.43L369.901 209.314L371.114 209.183L372.395 209.04L373.737 208.884L375.126 208.715L376.559 208.532L378.026 208.335L379.518 208.124L381.029 207.9L382.545 207.662L384.062 207.41L385.57 207.144L387.062 206.864L388.526 206.57L389.958 206.26L391.346 205.939L392.682 205.602L393.955 205.252L395.159 204.888L396.283 204.51L397.321 204.122L398.255 203.723L399.083 203.315ZM363.477 211.911C362.927 211.951 362.446 211.538 362.405 210.987C362.363 210.438 362.777 209.958 363.326 209.919L363.477 211.911Z" fill="#0D173D"/>
<path fill-rule="evenodd" clip-rule="evenodd" d="M552.175 186.294C552.293 185.756 552.828 185.418 553.367 185.54C553.905 185.66 554.243 186.196 554.123 186.735L552.175 186.294ZM552.175 186.294L554.123 186.735L553.832 187.976L553.532 189.162L553.219 190.294L552.899 191.37L552.571 192.394L552.237 193.366L551.897 194.287L551.555 195.159L551.211 195.983L550.865 196.76L550.521 197.49L550.177 198.176L549.836 198.818L549.5 199.416L549.169 199.975L548.844 200.492L548.529 200.97L548.223 201.41L547.927 201.812L547.644 202.18L547.373 202.512L547.119 202.811L546.88 203.075L546.659 203.31L546.456 203.515L546.273 203.688L546.112 203.836L545.975 203.956L545.86 204.05L545.771 204.119L545.715 204.162L545.672 204.192L544.535 202.548L544.521 202.558L544.549 202.536L544.601 202.495L544.68 202.432L544.781 202.344L544.907 202.23L545.052 202.088L545.22 201.92L545.409 201.72L545.615 201.492L545.839 201.231L546.077 200.938L546.329 200.61L546.596 200.247L546.875 199.847L547.164 199.41L547.463 198.932L547.768 198.416L548.083 197.858L548.4 197.258L548.723 196.614L549.048 195.924L549.375 195.188L549.703 194.406L550.029 193.574L550.355 192.692L550.675 191.762L550.988 190.776L551.299 189.739L551.599 188.647L551.891 187.499L552.175 186.294ZM545.672 204.192C545.22 204.506 544.596 204.392 544.283 203.938C543.968 203.486 544.08 202.863 544.535 202.548L545.672 204.192Z" fill="#0D173D"/>
<path fill-rule="evenodd" clip-rule="evenodd" d="M316.414 245.922C315.905 245.712 315.659 245.128 315.867 244.619C316.074 244.108 316.659 243.866 317.169 244.074L316.414 245.922ZM316.414 245.922L317.169 244.074L317.173 244.076L317.217 244.092L317.283 244.119L317.374 244.154L317.49 244.196L317.63 244.247L317.791 244.304L317.971 244.366L318.17 244.431L318.386 244.499L318.614 244.568L318.861 244.64L319.114 244.71L319.381 244.779L319.657 244.844L319.935 244.907L320.222 244.964L320.511 245.018L320.802 245.062L321.091 245.1L321.381 245.13L321.665 245.15L321.942 245.159L322.211 245.158L322.47 245.144L322.717 245.122L322.947 245.086L323.163 245.039L323.359 244.98L323.537 244.914L323.695 244.836L323.834 244.751L324.973 246.394L324.662 246.587L324.338 246.744L324.003 246.874L323.663 246.974L323.318 247.05L322.969 247.103L322.619 247.138L322.269 247.155L321.915 247.156L321.565 247.144L321.215 247.12L320.867 247.084L320.523 247.04L320.185 246.987L319.851 246.927L319.526 246.862L319.209 246.79L318.901 246.716L318.606 246.64L318.321 246.562L318.053 246.484L317.798 246.407L317.559 246.332L317.341 246.259L317.141 246.191L316.963 246.128L316.809 246.072L316.674 246.023L316.567 245.982L316.487 245.95L316.441 245.932L316.414 245.922ZM324.973 246.394L323.834 244.751L324.094 244.579L324.362 244.419L324.638 244.27L324.919 244.128L325.206 243.996L325.495 243.874L325.787 243.758L326.082 243.65L326.378 243.55L326.671 243.455L326.967 243.367L327.261 243.284L327.55 243.208L327.833 243.139L328.111 243.074L328.386 243.014L328.651 242.96L328.909 242.91L329.157 242.864L329.391 242.824L329.615 242.787L329.829 242.755L330.023 242.726L330.206 242.7L330.371 242.679L330.519 242.662L330.647 242.646L330.754 242.635L330.843 242.624L330.911 242.618L330.947 242.615L330.969 242.614L331.141 244.604H331.137L331.102 244.607L331.049 244.612L330.974 244.62L330.875 244.631L330.761 244.644L330.625 244.662L330.477 244.68L330.31 244.703L330.127 244.73L329.934 244.759L329.727 244.794L329.51 244.831L329.283 244.872L329.047 244.919L328.805 244.968L328.557 245.023L328.302 245.082L328.047 245.144L327.786 245.212L327.527 245.286L327.267 245.363L327.007 245.446L326.753 245.532L326.502 245.626L326.255 245.723L326.017 245.823L325.786 245.93L325.565 246.04L325.355 246.155L325.157 246.272L324.973 246.394ZM330.969 242.614C331.518 242.567 332.002 242.975 332.05 243.524C332.098 244.074 331.69 244.558 331.141 244.604L330.969 242.614Z" fill="#0D173D"/>
<path fill-rule="evenodd" clip-rule="evenodd" d="M541.723 171.532C541.723 171.532 558.86 168.959 564.839 166.513C570.82 164.067 577.616 159.445 588.76 158.357C599.905 157.271 602.624 154.824 611.867 152.377C621.108 149.931 626.817 147.212 635.788 149.931C644.757 152.649 650.195 153.193 653.185 158.087C656.175 162.979 655.495 169.367 660.388 171.271C665.281 173.172 668.136 171.677 668.136 171.677C668.136 171.677 673.027 178.337 675.201 179.017C677.377 179.697 685.804 179.56 690.969 180.24C696.133 180.92 696.541 184.861 694.773 186.9C693.007 188.939 689.609 190.027 689.609 190.027V193.152C689.609 193.152 696.269 191.521 698.307 193.696C700.348 195.871 703.201 195.191 704.56 194.104C705.919 193.016 707.279 192.745 708.093 195.327C708.909 197.909 708.639 199.268 708.639 199.268C708.639 199.268 701.979 202.259 699.396 203.345C696.812 204.433 695.453 204.705 693.823 204.705C692.193 204.705 690.424 207.287 688.795 209.869C687.164 212.452 685.939 211.365 684.852 210.413C683.765 209.461 681.589 209.461 680.773 209.461C679.959 209.461 672.213 210.549 670.039 210.549C667.863 210.549 667.591 206.608 667.727 204.841C667.863 203.073 668.136 201.171 668.136 201.171C668.136 201.171 660.66 195.463 655.904 195.055C651.145 194.647 646.116 195.735 646.116 195.735C646.116 195.735 646.525 204.977 643.128 209.871C639.729 214.763 637.284 216.667 637.284 216.667C637.284 216.667 639.457 222.919 638.915 229.849C638.369 236.783 638.369 240.451 638.369 240.451C638.369 240.451 642.039 240.86 646.117 243.171C650.195 245.48 657.807 247.791 666.232 248.607C674.659 249.421 679.552 249.965 680.232 249.149C680.912 248.335 682.679 247.248 683.221 245.48C683.765 243.713 684.175 242.015 685.057 241.743C685.94 241.471 692.396 241.199 693.892 241.199C695.387 241.199 696.813 243.577 697.833 244.325C698.852 245.072 700.62 246.431 700.755 247.791C700.891 249.149 699.805 250.984 700.417 252.208C701.027 253.432 699.872 255.471 699.599 256.761C699.328 258.053 700.62 257.848 699.805 259.819C698.988 261.791 698.036 262.741 697.696 263.285C697.357 263.829 693.008 263.965 692.125 263.897C691.243 263.829 690.969 263.489 690.629 263.489C690.289 263.489 685.601 264.305 682.407 263.76C679.212 263.217 677.989 262.605 677.719 262.131C677.445 261.653 661.816 262.129 652.981 261.721C644.148 261.313 637.352 259.955 637.352 259.955C637.352 259.955 639.729 267.497 641.088 269.129C642.448 270.76 655.224 271.168 657.807 271.168C660.389 271.168 669.836 274.225 671.467 274.7C673.097 275.177 675.748 276.264 677.651 276.604C679.555 276.944 680.708 277.759 680.505 278.779C680.301 279.799 679.351 279.799 678.533 280.683C677.719 281.565 676.495 281.701 675.136 281.973C673.776 282.245 670.107 282.108 668.273 282.108C666.437 282.108 660.527 281.905 656.109 281.905C651.691 281.905 644.013 281.293 640.343 281.157C636.672 281.023 634.091 277.624 634.091 277.624C634.091 277.624 621.451 261.179 617.917 257.644C614.383 254.111 611.664 247.859 608.945 242.965C606.228 238.072 604.867 235.083 603.781 231.548C602.695 228.015 601.063 227.199 602.967 222.577C604.867 217.956 605.82 213.199 605.82 211.16C605.82 209.121 605.956 207.763 605.956 207.763C605.956 207.763 602.287 208.307 600.383 208.171C598.481 208.035 595.899 210.753 585.161 212.384C574.423 214.015 551.153 218.521 543.489 215.724C543.489 215.724 548.653 192.901 541.723 171.532Z" fill="white"/>
<path d="M541.723 171.532C541.723 171.532 558.86 168.959 564.839 166.513C570.82 164.067 577.616 159.445 588.76 158.357C599.905 157.271 602.624 154.824 611.867 152.377C621.108 149.931 626.817 147.212 635.788 149.931C644.757 152.649 650.195 153.193 653.185 158.087C656.175 162.979 655.495 169.367 660.388 171.271C665.281 173.172 668.136 171.677 668.136 171.677C668.136 171.677 673.027 178.337 675.201 179.017C677.377 179.697 685.804 179.56 690.969 180.24C696.133 180.92 696.541 184.861 694.773 186.9C693.007 188.939 689.609 190.027 689.609 190.027V193.152C689.609 193.152 696.269 191.521 698.307 193.696C700.348 195.871 703.201 195.191 704.56 194.104C705.919 193.016 707.279 192.745 708.093 195.327C708.909 197.909 708.639 199.268 708.639 199.268C708.639 199.268 701.979 202.259 699.396 203.345C696.812 204.433 695.453 204.705 693.823 204.705C692.193 204.705 690.424 207.287 688.795 209.869C687.164 212.452 685.939 211.365 684.852 210.413C683.765 209.461 681.589 209.461 680.773 209.461C679.959 209.461 672.213 210.549 670.039 210.549C667.863 210.549 667.591 206.608 667.727 204.841C667.863 203.073 668.136 201.171 668.136 201.171C668.136 201.171 660.66 195.463 655.904 195.055C651.145 194.647 646.116 195.735 646.116 195.735C646.116 195.735 646.525 204.977 643.128 209.871C639.729 214.763 637.284 216.667 637.284 216.667C637.284 216.667 639.457 222.919 638.915 229.849C638.369 236.783 638.369 240.451 638.369 240.451C638.369 240.451 642.039 240.86 646.117 243.171C650.195 245.48 657.807 247.791 666.232 248.607C674.659 249.421 679.552 249.965 680.232 249.149C680.912 248.335 682.679 247.248 683.221 245.48C683.765 243.713 684.175 242.015 685.057 241.743C685.94 241.471 692.396 241.199 693.892 241.199C695.387 241.199 696.813 243.577 697.833 244.325C698.852 245.072 700.62 246.431 700.755 247.791C700.891 249.149 699.805 250.984 700.417 252.208C701.027 253.432 699.872 255.471 699.599 256.761C699.328 258.053 700.62 257.848 699.805 259.819C698.988 261.791 698.036 262.741 697.696 263.285C697.357 263.829 693.008 263.965 692.125 263.897C691.243 263.829 690.969 263.489 690.629 263.489C690.289 263.489 685.601 264.305 682.407 263.76C679.212 263.217 677.989 262.605 677.719 262.131C677.445 261.653 661.816 262.129 652.981 261.721C644.148 261.313 637.352 259.955 637.352 259.955C637.352 259.955 639.729 267.497 641.088 269.129C642.448 270.76 655.224 271.168 657.807 271.168C660.389 271.168 669.836 274.225 671.467 274.7C673.097 275.177 675.748 276.264 677.651 276.604C679.555 276.944 680.708 277.759 680.505 278.779C680.301 279.799 679.351 279.799 678.533 280.683C677.719 281.565 676.495 281.701 675.136 281.973C673.776 282.245 670.107 282.108 668.273 282.108C666.437 282.108 660.527 281.905 656.109 281.905C651.691 281.905 644.013 281.293 640.343 281.157C636.672 281.023 634.091 277.624 634.091 277.624C634.091 277.624 621.451 261.179 617.917 257.644C614.383 254.111 611.664 247.859 608.945 242.965C606.228 238.072 604.867 235.083 603.781 231.548C602.695 228.015 601.063 227.199 602.967 222.577C604.867 217.956 605.82 213.199 605.82 211.16C605.82 209.121 605.956 207.763 605.956 207.763C605.956 207.763 602.287 208.307 600.383 208.171C598.481 208.035 595.899 210.753 585.161 212.384C574.423 214.015 551.153 218.521 543.489 215.724C543.489 215.724 548.653 192.901 541.723 171.532Z" stroke="#0D173D" stroke-width="2" stroke-miterlimit="2.613" stroke-linecap="round" stroke-linejoin="round"/>
<path d="M605.956 207.762C605.956 207.762 606.773 203.957 607.044 199.608C607.316 195.258 610.036 187.102 614.928 181.666C619.82 176.23 625.529 171.88 625.529 171.88" stroke="#0D173D" stroke-width="2" stroke-miterlimit="2.613" stroke-linecap="round" stroke-linejoin="round"/>
<path d="M648.634 173.512C648.634 173.512 650.609 180.102 648.362 187.918C646.116 195.734 639.936 196.889 639.936 196.889C639.936 196.889 635.316 208.849 631.237 215.101C627.16 221.353 626.344 222.169 626.344 222.169C626.344 222.169 630.693 233.178 631.645 242.013C632.597 250.846 637.368 260.005 637.368 260.005" stroke="#0D173D" stroke-width="2" stroke-miterlimit="2.613" stroke-linecap="round" stroke-linejoin="round"/>
<path d="M638.37 240.451C638.37 240.451 632.666 242.207 632.46 243.983" stroke="#0D173D" stroke-width="2" stroke-miterlimit="2.613" stroke-linecap="round" stroke-linejoin="round"/>
<path d="M659.439 252.953C659.439 252.953 649.789 254.313 644.08 254.04C638.372 253.769 636.741 252.002 636.741 252.002" stroke="#0D173D" stroke-width="2" stroke-miterlimit="2.613" stroke-linecap="round" stroke-linejoin="round"/>
<path d="M630.625 257.71C630.625 257.71 621.518 247.789 618.935 241.401C616.354 235.013 616.217 231.886 616.217 231.886" stroke="#0D173D" stroke-width="2" stroke-miterlimit="2.613" stroke-linecap="round" stroke-linejoin="round"/>
<path d="M598.958 206.061C598.958 206.061 597.462 201.576 597.598 196.276C597.734 190.974 604.394 185.13 604.394 185.13" stroke="#0D173D" stroke-width="2" stroke-miterlimit="2.613" stroke-linecap="round" stroke-linejoin="round"/>
<path d="M692.701 180.643C692.701 180.643 687.169 180.508 684.586 182.139C682.003 183.771 680.779 186.08 680.779 187.576C680.779 189.071 682.003 189.615 682.003 189.615" stroke="#0D173D" stroke-width="2" stroke-miterlimit="2.613" stroke-linecap="round" stroke-linejoin="round"/>
<path fill-rule="evenodd" clip-rule="evenodd" d="M704.56 194.103C705.92 193.017 707.278 192.745 708.093 195.326C708.909 197.909 708.638 199.269 708.638 199.269C708.638 199.269 713.398 200.622 716.932 198.719C720.466 196.817 722.914 193.011 721.554 190.021C720.196 187.031 718.565 184.313 717.205 178.333C715.846 172.353 715.302 168.547 711.497 165.557C707.692 162.566 700.08 163.11 700.08 163.11C700.08 163.11 694.1 158.49 689.75 159.577C685.401 160.663 674.518 168.829 668.136 171.678C668.136 171.678 673.026 178.337 675.201 179.017C677.377 179.697 685.804 179.561 690.969 180.241C691.62 180.326 692.196 180.463 692.7 180.642C696.2 181.883 696.317 185.118 694.773 186.899C693.006 188.938 689.609 190.026 689.609 190.026V193.151C689.609 193.151 696.269 191.521 698.308 193.695C700.348 195.87 703.201 195.19 704.56 194.103Z" fill="#0D173D"/>
<path d="M704.56 194.103C705.92 193.017 707.278 192.745 708.093 195.326C708.909 197.909 708.638 199.269 708.638 199.269C708.638 199.269 713.398 200.622 716.932 198.719C720.466 196.817 722.914 193.011 721.554 190.021C720.196 187.031 718.565 184.313 717.205 178.333C715.846 172.353 715.302 168.547 711.497 165.557C707.692 162.566 700.08 163.11 700.08 163.11C700.08 163.11 694.1 158.49 689.75 159.577C685.401 160.663 674.518 168.829 668.136 171.678C668.136 171.678 673.026 178.337 675.201 179.017C677.377 179.697 685.804 179.561 690.969 180.241C691.62 180.326 692.196 180.463 692.7 180.642C696.2 181.883 696.317 185.118 694.773 186.899C693.006 188.938 689.609 190.026 689.609 190.026V193.151C689.609 193.151 696.269 191.521 698.308 193.695C700.348 195.87 703.201 195.19 704.56 194.103Z" stroke="#0D173D" stroke-width="2" stroke-miterlimit="2.613" stroke-linecap="round" stroke-linejoin="round"/>
<path d="M637.154 195.05C637.154 195.05 629.812 196.545 626.414 198.855" stroke="#0D173D" stroke-width="2" stroke-miterlimit="2.613" stroke-linecap="round" stroke-linejoin="round"/>
<path d="M626.344 222.169C626.344 222.169 621.114 215.166 621.25 212.719C621.386 210.273 623.153 204.973 623.153 204.973" stroke="#0D173D" stroke-width="2" stroke-miterlimit="2.613" stroke-linecap="round" stroke-linejoin="round"/>
<path fill-rule="evenodd" clip-rule="evenodd" d="M405.524 350.5C405.524 350.5 383.682 346.955 371.66 355.679C359.636 364.404 356.597 373.7 352.714 376.009C348.829 378.317 329.39 388.176 327.318 389.369C325.244 390.564 323.398 391.476 323.398 391.476C323.398 391.476 322.912 392.256 322.95 393.651C322.992 395.044 323.026 395.245 323.026 395.245L320.534 397.199C320.534 397.199 322.117 411.969 326.026 418.371C329.933 424.773 332.72 429.548 332.72 429.548C332.72 429.548 367.349 410.844 373.87 408.576C380.393 406.307 390.568 404.332 400.889 400.063C411.212 395.793 414.964 393.525 414.964 393.525C414.964 393.525 416.073 370.131 405.524 350.5Z" fill="#0D173D"/>
<path d="M405.524 350.5C405.524 350.5 383.682 346.955 371.66 355.679C359.636 364.404 356.597 373.7 352.714 376.009C348.829 378.317 329.39 388.176 327.318 389.369C325.244 390.564 323.398 391.476 323.398 391.476C323.398 391.476 322.912 392.256 322.95 393.651C322.992 395.044 323.026 395.245 323.026 395.245L320.534 397.199C320.534 397.199 322.117 411.969 326.026 418.371C329.933 424.773 332.72 429.548 332.72 429.548C332.72 429.548 367.349 410.844 373.87 408.576C380.393 406.307 390.568 404.332 400.889 400.063C411.212 395.793 414.964 393.525 414.964 393.525C414.964 393.525 416.073 370.131 405.524 350.5Z" stroke="#0D173D" stroke-width="2" stroke-miterlimit="10" stroke-linejoin="round"/>
<path fill-rule="evenodd" clip-rule="evenodd" d="M323.034 392.547C323.034 392.547 304.157 401.275 296.81 402.808C289.466 404.344 274.871 397.823 254.679 407.35C234.49 416.875 217.589 429.336 211.831 431.231C206.073 433.126 199.673 432.964 195.075 434.366C190.475 435.767 188.477 439.33 187.969 444.264C187.461 449.199 190.107 451.627 190.107 451.627C190.107 451.627 179.538 453.723 177.87 459.151C176.203 464.579 179.562 469.462 182.758 473.408C185.95 477.355 193.247 484.131 195.71 490.972C198.173 497.815 201.561 499.735 201.561 499.735C201.561 499.735 202.225 501.923 205.485 502.335C208.742 502.748 208.302 501.055 210.406 500.414C212.507 499.774 212.973 500.054 214.851 497.372C216.729 494.691 217.277 496.212 219.001 493.438C220.723 490.663 220.713 489.823 218.615 487.368C216.517 484.914 214.597 484.235 214.745 480.394C214.886 476.738 214.518 473.746 213.055 471.476L213.057 471.478C215.677 473.49 214.998 478.246 219.485 480.014C223.967 481.78 224.239 482.052 227.774 482.595C231.307 483.139 234.978 483.275 237.695 482.46C240.414 481.643 239.87 479.334 239.327 478.382C238.783 477.431 240.414 476.343 238.647 475.12C236.881 473.898 234.841 473.76 234.026 472.81C233.211 471.858 229.269 469.411 228.862 467.508C228.453 465.606 226.914 459.272 226.821 457.156C226.725 455.04 226.755 454.976 226.758 453.964C230.729 452.706 233.963 451.246 241.054 450.727C248.143 450.207 265.487 446.375 275.067 442.612C284.651 438.851 289.118 437.49 295.446 437.248C301.774 437.008 306.862 436.019 310.279 434.979C313.693 433.939 319.69 431.831 322.105 431.376C324.515 430.922 332.721 429.548 332.721 429.548C332.721 429.548 329.933 424.774 326.026 418.371C322.118 411.97 320.535 397.199 320.535 397.199L323.026 395.244C323.026 395.244 322.993 395.044 322.951 393.65C322.938 393.224 322.977 392.854 323.034 392.547Z" fill="white"/>
<path d="M323.034 392.547C323.034 392.547 304.157 401.275 296.81 402.808C289.466 404.344 274.871 397.823 254.679 407.35C234.49 416.875 217.589 429.336 211.831 431.231C206.073 433.126 199.673 432.964 195.075 434.366C190.475 435.767 188.477 439.33 187.969 444.264C187.461 449.199 190.107 451.627 190.107 451.627C190.107 451.627 179.538 453.723 177.87 459.151C176.203 464.579 179.562 469.462 182.758 473.408C185.95 477.355 193.247 484.131 195.71 490.972C198.173 497.815 201.561 499.735 201.561 499.735C201.561 499.735 202.225 501.923 205.485 502.335C208.742 502.748 208.302 501.055 210.406 500.414C212.507 499.774 212.973 500.054 214.851 497.372C216.729 494.691 217.277 496.212 219.001 493.438C220.723 490.663 220.713 489.823 218.615 487.368C216.517 484.914 214.597 484.235 214.745 480.394C214.886 476.738 214.518 473.746 213.055 471.476L213.057 471.478C215.677 473.49 214.998 478.246 219.485 480.014C223.967 481.78 224.239 482.052 227.774 482.595C231.307 483.139 234.978 483.275 237.695 482.46C240.414 481.643 239.87 479.334 239.327 478.382C238.783 477.431 240.414 476.343 238.647 475.12C236.881 473.898 234.841 473.76 234.026 472.81C233.211 471.858 229.269 469.411 228.862 467.508C228.453 465.606 226.914 459.272 226.821 457.156C226.725 455.04 226.755 454.976 226.758 453.964C230.729 452.706 233.963 451.246 241.054 450.727C248.143 450.207 265.487 446.375 275.067 442.612C284.651 438.851 289.118 437.49 295.446 437.248C301.774 437.008 306.862 436.019 310.279 434.979C313.693 433.939 319.69 431.831 322.105 431.376C324.515 430.922 332.721 429.548 332.721 429.548C332.721 429.548 329.933 424.774 326.026 418.371C322.118 411.97 320.535 397.199 320.535 397.199L323.026 395.244C323.026 395.244 322.993 395.044 322.951 393.65C322.938 393.224 322.977 392.854 323.034 392.547Z" stroke="#0D173D" stroke-width="2" stroke-miterlimit="2.613" stroke-linecap="round" stroke-linejoin="round"/>
<path fill-rule="evenodd" clip-rule="evenodd" d="M319.958 396.38C320.412 396.06 321.037 396.167 321.354 396.619C321.672 397.072 321.562 397.698 321.109 398.018L319.958 396.38ZM319.958 396.38L321.109 398.018L321.062 398.051L320.932 398.142L320.72 398.291L320.43 398.491L320.068 398.742L319.634 399.038L319.136 399.375L318.576 399.752L317.957 400.166L317.285 400.611L316.562 401.084L315.797 401.583L314.986 402.106L314.138 402.644L313.254 403.199L312.341 403.766L311.401 404.34L310.44 404.918L309.457 405.499L308.461 406.078L307.453 406.651L306.437 407.215L305.42 407.767L304.401 408.303L303.386 408.82L302.38 409.315L301.382 409.784L300.401 410.224L299.44 410.631L298.497 411.003L297.581 411.336L296.69 411.626L296.116 409.706L296.937 409.438L297.797 409.128L298.689 408.775L299.609 408.386L300.554 407.963L301.518 407.508L302.497 407.026L303.486 406.522L304.484 405.998L305.482 405.456L306.48 404.903L307.469 404.339L308.45 403.768L309.42 403.195L310.37 402.626L311.298 402.058L312.201 401.498L313.073 400.95L313.914 400.415L314.713 399.9L315.474 399.407L316.189 398.936L316.854 398.496L317.466 398.087L318.021 397.714L318.513 397.379L318.94 397.087L319.298 396.842L319.584 396.643L319.79 396.499L319.917 396.408L319.958 396.38ZM296.116 409.706L296.69 411.626L295.876 411.872L295.101 412.106L294.368 412.323L293.666 412.527L293 412.719L292.358 412.899L291.74 413.066L291.144 413.222L290.562 413.367L289.993 413.504L289.432 413.631L288.877 413.748L288.324 413.858L287.769 413.963L287.209 414.059L286.641 414.148L286.058 414.235L285.461 414.314L284.844 414.391L284.204 414.464L283.537 414.534L282.837 414.603L282.104 414.671L281.332 414.739L280.518 414.806L279.657 414.875L278.748 414.946L277.781 415.019L276.76 415.095L275.674 415.175L274.525 415.259L273.305 415.35L273.165 413.35L274.385 413.258L275.537 413.175L276.62 413.094L277.641 413.019L278.601 412.946L279.509 412.875L280.364 412.807L281.172 412.74L281.933 412.674L282.654 412.607L283.341 412.538L283.993 412.468L284.614 412.399L285.213 412.324L285.789 412.246L286.346 412.166L286.89 412.078L287.426 411.987L287.956 411.89L288.482 411.784L289.01 411.671L289.546 411.55L290.094 411.418L290.654 411.279L291.234 411.127L291.834 410.964L292.461 410.79L293.118 410.6L293.809 410.399L294.537 410.184L295.305 409.952L296.116 409.706ZM273.165 413.35L273.305 415.35L272.086 415.45L270.906 415.568L269.762 415.703L268.656 415.854L267.584 416.022L266.544 416.206L265.537 416.404L264.56 416.618L263.612 416.846L262.69 417.086L261.797 417.342L260.926 417.61L260.077 417.89L259.25 418.183L258.442 418.487L257.653 418.803L256.88 419.13L256.125 419.467L255.38 419.815L254.652 420.174L253.93 420.54L253.218 420.916L252.516 421.302L251.82 421.696L251.128 422.099L250.441 422.508L249.756 422.926L249.07 423.35L248.385 423.78L247.698 424.216L247.006 424.659L246.312 425.106L245.233 423.419L245.932 422.97L246.628 422.524L247.321 422.083L248.017 421.647L248.713 421.215L249.414 420.791L250.12 420.37L250.83 419.958L251.549 419.551L252.276 419.151L253.013 418.76L253.762 418.379L254.525 418.006L255.3 417.643L256.092 417.291L256.898 416.948L257.724 416.618L258.57 416.298L259.437 415.992L260.324 415.698L261.234 415.418L262.172 415.151L263.133 414.9L264.121 414.662L265.138 414.44L266.185 414.234L267.264 414.043L268.374 413.87L269.518 413.712L270.698 413.574L271.912 413.452L273.165 413.35ZM245.233 423.419L246.312 425.106L245.597 425.566L244.854 426.038L244.088 426.524L243.296 427.023L242.485 427.532L241.65 428.052L240.797 428.58L239.928 429.118L239.041 429.66L238.14 430.21L237.224 430.764L236.3 431.323L235.362 431.884L234.417 432.448L233.464 433.012L232.506 433.575L231.542 434.138L230.578 434.699L229.61 435.256L228.644 435.81L227.677 436.358L226.716 436.902L225.758 437.435L224.806 437.963L223.862 438.479L222.926 438.987L222 439.482L221.089 439.966L220.188 440.436L219.302 440.892L218.432 441.334L217.581 441.758L216.702 439.959L217.54 439.54L218.398 439.107L219.272 438.655L220.161 438.19L221.066 437.712L221.982 437.22L222.909 436.718L223.846 436.204L224.792 435.683L225.742 435.151L226.698 434.612L227.658 434.068L228.62 433.518L229.581 432.963L230.541 432.406L231.5 431.846L232.452 431.284L233.401 430.723L234.341 430.163L235.273 429.604L236.196 429.048L237.104 428.496L238.002 427.95L238.885 427.408L239.75 426.874L240.598 426.35L241.428 425.832L242.237 425.326L243.024 424.83L243.785 424.347L244.522 423.875L245.233 423.419ZM216.702 439.959L217.581 441.758L216.708 442.183L215.786 442.615L214.822 443.056L213.821 443.503L212.786 443.955L211.724 444.41L210.638 444.867L209.534 445.326L208.417 445.784L207.29 446.239L206.161 446.688L205.034 447.134L203.912 447.574L202.801 448.003L201.706 448.423L200.633 448.831L199.588 449.227L198.572 449.608L197.593 449.974L196.653 450.322L195.764 450.65L194.922 450.959L194.138 451.243L193.416 451.507L192.758 451.743L192.172 451.955L191.664 452.136L191.234 452.29L190.893 452.411L190.644 452.5L190.488 452.554L190.434 452.574L189.778 450.68L189.83 450.662L189.985 450.608L190.232 450.519L190.572 450.399L190.997 450.247L191.504 450.066L192.088 449.855L192.741 449.62L193.461 449.358L194.242 449.075L195.08 448.767L195.968 448.439L196.902 448.092L197.877 447.73L198.888 447.35L199.93 446.956L200.997 446.55L202.089 446.131L203.193 445.703L204.308 445.267L205.43 444.824L206.552 444.376L207.669 443.924L208.778 443.471L209.874 443.018L210.949 442.564L211.998 442.114L213.02 441.668L214.005 441.228L214.95 440.795L215.852 440.371L216.702 439.959ZM190.434 452.574C189.914 452.756 189.341 452.482 189.161 451.959C188.98 451.436 189.258 450.863 189.778 450.68L190.434 452.574Z" fill="#0D173D"/>
<path fill-rule="evenodd" clip-rule="evenodd" d="M284.315 423.115C284.52 422.599 285.103 422.348 285.618 422.551C286.13 422.753 286.38 423.337 286.175 423.853L284.315 423.115ZM284.315 423.115L286.175 423.853L286.124 423.959L286.08 424.037L286.02 424.127L285.954 424.212L285.872 424.307L285.775 424.412L285.658 424.525L285.52 424.647L285.359 424.784L285.17 424.933L284.951 425.097L284.699 425.276L284.411 425.472L284.086 425.685L283.716 425.916L283.304 426.164L282.843 426.432L282.335 426.72L281.771 427.029L281.151 427.36L280.474 427.709L279.734 428.085L278.931 428.481L278.06 428.903L277.12 429.348L276.107 429.816L275.018 430.312L273.851 430.833L272.604 431.381L271.272 431.956L269.854 432.557L268.347 433.189L267.587 431.336L269.083 430.708L270.492 430.111L271.812 429.541L273.048 428.999L274.203 428.483L275.279 427.993L276.278 427.531L277.203 427.092L278.059 426.679L278.846 426.291L279.567 425.924L280.227 425.584L280.826 425.264L281.367 424.968L281.854 424.692L282.288 424.439L282.675 424.205L283.014 423.993L283.31 423.803L283.563 423.629L283.776 423.476L283.955 423.343L284.1 423.229L284.211 423.135L284.296 423.057L284.354 423.001L284.388 422.965L284.404 422.947L284.403 422.948L284.383 422.976L284.358 423.021L284.315 423.115ZM267.587 431.336L268.347 433.189L266.763 433.823L265.159 434.42L263.534 434.984L261.9 435.513L260.26 436.009L258.615 436.473L256.974 436.908L255.338 437.311L253.714 437.687L252.104 438.035L250.516 438.357L248.954 438.652L247.422 438.924L245.924 439.173L244.466 439.4L243.052 439.604L241.687 439.789L240.375 439.955L239.122 440.101L237.932 440.232L236.81 440.347L235.758 440.444L234.787 440.529L233.894 440.6L233.09 440.66L232.378 440.708L231.758 440.747L231.242 440.775L230.834 440.796L230.531 440.809L230.346 440.816L230.279 440.819L230.222 438.813L230.278 438.812L230.454 438.805L230.744 438.792L231.146 438.771L231.65 438.744L232.255 438.705L232.955 438.659L233.75 438.6L234.627 438.531L235.587 438.447L236.622 438.349L237.731 438.237L238.906 438.108L240.142 437.964L241.435 437.8L242.783 437.617L244.176 437.416L245.616 437.192L247.091 436.947L248.602 436.68L250.139 436.387L251.703 436.071L253.284 435.729L254.88 435.36L256.487 434.963L258.096 434.537L259.706 434.084L261.312 433.597L262.907 433.081L264.488 432.532L266.05 431.951L267.587 431.336ZM230.279 440.819C229.727 440.837 229.266 440.404 229.248 439.849C229.234 439.296 229.67 438.832 230.222 438.813L230.279 440.819Z" fill="#0D173D"/>
<path fill-rule="evenodd" clip-rule="evenodd" d="M270.599 409.259C271.028 408.911 271.662 408.979 272.006 409.411C272.351 409.842 272.282 410.474 271.848 410.822L270.599 409.259ZM270.599 409.259L271.848 410.822L271.008 411.454L270.075 412.082L269.056 412.706L267.958 413.324L266.787 413.94L265.551 414.551L264.259 415.156L262.916 415.755L261.534 416.346L260.118 416.928L258.678 417.5L257.219 418.062L255.75 418.608L254.282 419.142L252.82 419.658L251.374 420.158L249.952 420.638L248.56 421.098L247.211 421.538L245.908 421.954L244.662 422.343L243.482 422.708L242.375 423.046L241.347 423.354L240.41 423.63L239.571 423.876L238.839 424.087L238.219 424.264L237.724 424.403L237.356 424.507L237.131 424.568L237.052 424.591L236.534 422.655L236.608 422.634L236.828 422.574L237.188 422.472L237.68 422.335L238.294 422.159L239.02 421.95L239.852 421.706L240.783 421.431L241.802 421.124L242.903 420.79L244.075 420.428L245.312 420.039L246.604 419.627L247.944 419.191L249.326 418.735L250.735 418.259L252.167 417.763L253.615 417.252L255.067 416.726L256.516 416.184L257.956 415.631L259.375 415.068L260.768 414.496L262.123 413.916L263.434 413.332L264.69 412.743L265.883 412.152L267.007 411.563L268.05 410.975L269 410.394L269.854 409.819L270.599 409.259ZM237.052 424.591C236.519 424.736 235.968 424.422 235.826 423.887C235.683 423.352 236 422.8 236.534 422.655L237.052 424.591Z" fill="#0D173D"/>
<path fill-rule="evenodd" clip-rule="evenodd" d="M418.383 362.952C418.409 362.399 418.876 361.969 419.429 361.991C419.981 362.013 420.409 362.48 420.385 363.035L418.383 362.952ZM418.383 362.952L420.385 363.035L420.315 364.309L420.224 365.532L420.115 366.701L419.987 367.819L419.841 368.888L419.683 369.907L419.511 370.876L419.325 371.799L419.131 372.673L418.924 373.503L418.711 374.287L418.493 375.025L418.269 375.721L418.044 376.373L417.815 376.984L417.584 377.555L417.356 378.085L417.133 378.576L416.912 379.029L416.697 379.443L416.489 379.82L416.292 380.161L416.101 380.469L415.924 380.741L415.76 380.98L415.612 381.188L415.479 381.363L415.364 381.505L415.267 381.621L415.192 381.705L415.144 381.757L415.109 381.796L413.689 380.385L413.681 380.396L413.705 380.369L413.749 380.319L413.815 380.243L413.899 380.136L414.003 379.997L414.124 379.831L414.259 379.633L414.411 379.401L414.573 379.137L414.747 378.837L414.931 378.503L415.124 378.132L415.323 377.724L415.528 377.277L415.737 376.792L415.948 376.267L416.159 375.701L416.369 375.092L416.577 374.441L416.784 373.747L416.984 373.007L417.18 372.221L417.364 371.389L417.541 370.511L417.708 369.584L417.859 368.607L417.999 367.58L418.123 366.501L418.228 365.372L418.316 364.189L418.383 362.952ZM415.109 381.796C414.72 382.189 414.085 382.193 413.692 381.805C413.3 381.416 413.299 380.78 413.689 380.385L415.109 381.796Z" fill="#0D173D"/>
<path fill-rule="evenodd" clip-rule="evenodd" d="M196.638 467.065C196.097 466.958 195.746 466.43 195.854 465.888C195.965 465.344 196.494 464.99 197.037 465.097L196.638 467.065ZM196.638 467.065L197.037 465.097L197.045 465.098L197.086 465.106L197.151 465.118L197.25 465.136L197.374 465.156L197.518 465.178L197.687 465.202L197.877 465.228L198.083 465.254L198.306 465.278L198.546 465.304L198.799 465.325L199.062 465.345L199.335 465.361L199.617 465.372L199.903 465.38L200.195 465.381L200.49 465.376L200.783 465.365L201.077 465.346L201.365 465.318L201.649 465.284L201.923 465.24L202.189 465.186L202.442 465.124L202.679 465.052L202.903 464.972L203.109 464.884L203.291 464.789L203.455 464.688L203.599 464.581L203.722 464.468L205.141 465.878L204.87 466.126L204.581 466.344L204.274 466.534L203.955 466.698L203.63 466.838L203.299 466.958L202.959 467.06L202.617 467.145L202.271 467.213L201.923 467.269L201.574 467.314L201.226 467.346L200.881 467.369L200.537 467.381L200.198 467.386L199.867 467.385L199.542 467.377L199.226 467.365L198.922 467.346L198.629 467.325L198.351 467.301L198.086 467.273L197.838 467.246L197.61 467.217L197.401 467.19L197.217 467.162L197.053 467.137L196.913 467.114L196.802 467.094L196.717 467.081L196.662 467.07L196.638 467.065ZM205.141 465.878L203.722 464.468L203.947 464.25L204.185 464.041L204.43 463.841L204.679 463.649L204.938 463.466L205.203 463.289L205.471 463.118L205.742 462.956L206.015 462.8L206.289 462.65L206.563 462.508L206.837 462.37L207.109 462.241L207.375 462.117L207.639 461.998L207.898 461.888L208.149 461.784L208.394 461.685L208.629 461.593L208.854 461.506L209.07 461.426L209.271 461.354L209.461 461.289L209.635 461.229L209.793 461.176L209.934 461.13L210.059 461.09L210.166 461.057L210.247 461.033L210.31 461.013L210.349 461.001L210.37 460.996L210.909 462.926H210.906L210.875 462.936L210.821 462.952L210.745 462.976L210.654 463.004L210.543 463.038L210.413 463.081L210.269 463.13L210.107 463.185L209.934 463.245L209.747 463.313L209.55 463.385L209.343 463.464L209.126 463.548L208.902 463.64L208.671 463.736L208.438 463.837L208.198 463.944L207.955 464.056L207.711 464.172L207.467 464.294L207.223 464.421L206.985 464.552L206.747 464.688L206.515 464.825L206.291 464.969L206.073 465.114L205.865 465.264L205.665 465.416L205.477 465.569L205.303 465.722L205.141 465.878ZM210.37 460.996C210.903 460.845 211.455 461.153 211.605 461.686C211.753 462.218 211.443 462.774 210.909 462.926L210.37 460.996Z" fill="#0D173D"/>
<path d="M213.056 471.478C213.056 471.478 211.904 466.986 211.125 464.518C210.347 462.051 210.64 461.961 210.64 461.961C210.64 461.961 214.931 457.994 218.057 456.634C221.183 455.277 229.885 453.171 229.885 453.171" stroke="#0D173D" stroke-width="2" stroke-miterlimit="2.613" stroke-linecap="round" stroke-linejoin="round"/>
<path fill-rule="evenodd" clip-rule="evenodd" d="M405.523 350.5C405.523 350.5 419.349 346.541 424.786 344.096C430.222 341.649 452.783 330.504 465.289 329.144C477.793 327.787 478.607 327.243 484.317 325.883C490.026 324.525 500.354 324.796 506.607 327.515C512.859 330.232 515.578 335.397 521.013 336.212C526.45 337.028 532.974 333.765 532.974 333.765C532.974 333.765 535.555 340.019 536.778 340.971C538.002 341.92 546.837 340.969 547.515 340.697C548.198 340.425 558.933 339.339 560.021 342.193C561.107 345.047 559.75 347.901 557.711 348.716C555.671 349.532 555.127 349.804 555.127 349.804L555.671 353.201C555.671 353.201 561.381 351.707 564.371 353.609C567.361 355.513 570.894 350.212 574.429 350.62C577.962 351.028 578.098 354.561 578.098 354.561C578.098 354.561 568.177 360.812 566.953 361.901C565.729 362.988 564.778 362.172 563.962 363.124C563.149 364.076 560.021 368.424 558.662 370.192C557.303 371.959 553.633 369.376 552.818 368.696C552.002 368.017 550.643 368.017 547.925 369.24C545.206 370.464 540.857 373.045 538.002 371.687C535.149 370.327 534.059 363.667 534.059 362.444C534.059 361.221 527.13 360.269 525.091 360.677C523.051 361.084 522.237 361.629 522.237 361.629C522.237 361.629 522.507 372.095 518.703 379.705C514.898 387.316 514.354 388.404 514.354 388.404C514.354 388.404 517.071 401.724 518.159 409.879C519.247 418.033 518.433 419.664 518.433 419.664C518.433 419.664 521.966 438.964 520.334 451.74C518.703 464.517 518.431 470.633 518.431 470.633C518.431 470.633 523.731 471.448 526.042 471.448C528.353 471.448 533.586 472.807 535.149 472.74C536.713 472.671 540.042 473.487 541.333 473.623C542.625 473.759 545.002 473.555 545.547 474.099C546.091 474.641 547.381 476.273 545.274 477.496C543.167 478.72 541.673 478.311 535.557 478.108C529.441 477.904 527.538 477.904 527.538 477.904C527.538 477.904 529.305 479.06 527.673 479.943C526.042 480.827 518.499 480.011 518.499 480.011C518.499 480.011 519.109 485.921 519.518 487.144C519.927 488.367 521.693 488.504 521.693 488.504C521.693 488.504 531.751 488.912 533.654 488.912C535.555 488.912 539.906 491.085 543.982 491.359C548.059 491.631 553.77 494.348 554.857 494.756C555.943 495.164 555.943 497.747 553.362 498.291C550.778 498.833 546.293 498.561 544.526 498.561H538.41C535.149 498.561 524.955 498.425 522.917 498.425C520.878 498.425 516.119 499.513 513.401 498.153C510.683 496.795 510.003 494.62 510.003 494.62C510.003 494.62 498.451 461.728 497.091 456.427C495.733 451.127 495.189 440.933 495.461 433.187C495.733 425.439 495.87 425.981 496.141 422.857C496.413 419.731 496.821 418.507 496.955 417.692C497.091 416.876 493.967 406.001 492.335 397.983C490.706 389.964 490.57 386.157 490.57 386.157C490.57 386.157 488.941 384.12 487.987 382.081C487.037 380.041 486.221 377.595 486.221 377.595C486.221 377.595 471.406 377.732 468.143 377.46C464.883 377.188 448.573 383.44 439.602 386.701C430.631 389.964 423.49 394.912 414.963 393.525C414.963 393.525 416.073 370.131 405.523 350.5Z" fill="white"/>
<path d="M405.523 350.5C405.523 350.5 419.349 346.541 424.786 344.096C430.222 341.649 452.783 330.504 465.289 329.144C477.793 327.787 478.607 327.243 484.317 325.883C490.026 324.525 500.354 324.796 506.607 327.515C512.859 330.232 515.578 335.397 521.013 336.212C526.45 337.028 532.974 333.765 532.974 333.765C532.974 333.765 535.555 340.019 536.778 340.971C538.002 341.92 546.837 340.969 547.515 340.697C548.198 340.425 558.933 339.339 560.021 342.193C561.107 345.047 559.75 347.901 557.711 348.716C555.671 349.532 555.127 349.804 555.127 349.804L555.671 353.201C555.671 353.201 561.381 351.707 564.371 353.609C567.361 355.513 570.894 350.212 574.429 350.62C577.962 351.028 578.098 354.561 578.098 354.561C578.098 354.561 568.177 360.812 566.953 361.901C565.729 362.988 564.778 362.172 563.962 363.124C563.149 364.076 560.021 368.424 558.662 370.192C557.303 371.959 553.633 369.376 552.818 368.696C552.002 368.017 550.643 368.017 547.925 369.24C545.206 370.464 540.857 373.045 538.002 371.687C535.149 370.327 534.059 363.667 534.059 362.444C534.059 361.221 527.13 360.269 525.091 360.677C523.051 361.084 522.237 361.629 522.237 361.629C522.237 361.629 522.507 372.095 518.703 379.705C514.898 387.316 514.354 388.404 514.354 388.404C514.354 388.404 517.071 401.724 518.159 409.879C519.247 418.033 518.433 419.664 518.433 419.664C518.433 419.664 521.966 438.964 520.334 451.74C518.703 464.517 518.431 470.633 518.431 470.633C518.431 470.633 523.731 471.448 526.042 471.448C528.353 471.448 533.586 472.807 535.149 472.74C536.713 472.671 540.042 473.487 541.333 473.623C542.625 473.759 545.002 473.555 545.547 474.099C546.091 474.641 547.381 476.273 545.274 477.496C543.167 478.72 541.673 478.311 535.557 478.108C529.441 477.904 527.538 477.904 527.538 477.904C527.538 477.904 529.305 479.06 527.673 479.943C526.042 480.827 518.499 480.011 518.499 480.011C518.499 480.011 519.109 485.921 519.518 487.144C519.927 488.367 521.693 488.504 521.693 488.504C521.693 488.504 531.751 488.912 533.654 488.912C535.555 488.912 539.906 491.085 543.982 491.359C548.059 491.631 553.77 494.348 554.857 494.756C555.943 495.164 555.943 497.747 553.362 498.291C550.778 498.833 546.293 498.561 544.526 498.561H538.41C535.149 498.561 524.955 498.425 522.917 498.425C520.878 498.425 516.119 499.513 513.401 498.153C510.683 496.795 510.003 494.62 510.003 494.62C510.003 494.62 498.451 461.728 497.091 456.427C495.733 451.127 495.189 440.933 495.461 433.187C495.733 425.439 495.87 425.981 496.141 422.857C496.413 419.731 496.821 418.507 496.955 417.692C497.091 416.876 493.967 406.001 492.335 397.983C490.706 389.964 490.57 386.157 490.57 386.157C490.57 386.157 488.941 384.12 487.987 382.081C487.037 380.041 486.221 377.595 486.221 377.595C486.221 377.595 471.406 377.732 468.143 377.46C464.883 377.188 448.573 383.44 439.602 386.701C430.631 389.964 423.49 394.912 414.963 393.525C414.963 393.525 416.073 370.131 405.523 350.5Z" stroke="#0D173D" stroke-width="2" stroke-miterlimit="2.613" stroke-linecap="round" stroke-linejoin="round"/>
<path d="M554.036 340.283C554.036 340.283 548.675 342.661 547.451 344.157C546.228 345.652 545.412 347.964 546.5 349.459C547.588 350.953 549.083 350.953 549.083 350.953" stroke="#0D173D" stroke-width="2" stroke-miterlimit="2.613" stroke-linecap="round" stroke-linejoin="round"/>
<path d="M545.997 347.967C545.997 347.967 541.336 349.458 539.704 352.313C538.073 355.165 536.579 359.787 536.579 359.787" stroke="#0D173D" stroke-width="2" stroke-miterlimit="2.613" stroke-linecap="round" stroke-linejoin="round"/>
<path fill-rule="evenodd" clip-rule="evenodd" d="M578.098 354.561C578.098 354.561 582.927 356.386 587.276 352.445C591.626 348.504 591.898 342.524 589.044 340.349C586.19 338.173 582.655 335.318 580.344 330.425C578.034 325.533 575.859 319.689 571.782 318.737C567.706 317.786 563.627 318.329 563.627 318.329C563.627 318.329 557.646 316.018 553.57 317.649C549.492 319.281 547.727 321.592 544.328 325.125C540.93 328.658 532.974 333.765 532.974 333.765C532.974 333.765 535.556 340.018 536.779 340.97C538.003 341.921 546.838 340.969 547.515 340.698C547.872 340.556 550.992 340.189 554.036 340.282C556.8 340.368 559.504 340.834 560.02 342.193C561.108 345.046 559.75 347.901 557.711 348.716C555.672 349.533 555.127 349.804 555.127 349.804L555.672 353.201C555.672 353.201 561.38 351.706 564.371 353.609C567.36 355.513 570.895 350.212 574.428 350.62C577.962 351.028 578.098 354.561 578.098 354.561Z" fill="#0D173D"/>
<path d="M578.098 354.561C578.098 354.561 582.927 356.386 587.276 352.445C591.626 348.504 591.898 342.524 589.044 340.349C586.19 338.173 582.655 335.318 580.344 330.425C578.034 325.533 575.859 319.689 571.782 318.737C567.706 317.786 563.627 318.329 563.627 318.329C563.627 318.329 557.646 316.018 553.57 317.649C549.492 319.281 547.727 321.592 544.328 325.125C540.93 328.658 532.974 333.765 532.974 333.765C532.974 333.765 535.556 340.018 536.779 340.97C538.003 341.921 546.838 340.969 547.515 340.698C547.872 340.556 550.992 340.189 554.036 340.282C556.8 340.368 559.504 340.834 560.02 342.193C561.108 345.046 559.75 347.901 557.711 348.716C555.672 349.533 555.127 349.804 555.127 349.804L555.672 353.201C555.672 353.201 561.38 351.706 564.371 353.609C567.36 355.513 570.895 350.212 574.428 350.62C577.962 351.028 578.098 354.561 578.098 354.561Z" stroke="#0D173D" stroke-width="2" stroke-miterlimit="2.613" stroke-linecap="round" stroke-linejoin="round"/>
<path d="M492.336 345.927C492.336 345.927 489.62 355.442 490.027 362.51C490.433 369.575 492.336 370.663 492.336 374.876C492.336 379.09 490.571 386.158 490.571 386.158" stroke="#0D173D" stroke-width="2" stroke-miterlimit="2.613" stroke-linecap="round" stroke-linejoin="round"/>
<path d="M486.221 377.595C486.221 377.595 488.531 377.459 489.823 376.712" stroke="#0D173D" stroke-width="2" stroke-miterlimit="2.613" stroke-linecap="round" stroke-linejoin="round"/>
<path d="M485.339 366.313C485.339 366.313 466.311 366.583 460.872 364.951C455.437 363.322 446.331 359.109 441.845 358.429C437.36 357.749 433.963 355.167 434.507 353.399" stroke="#0D173D" stroke-width="2" stroke-miterlimit="2.613" stroke-linecap="round" stroke-linejoin="round"/>
<path d="M522.237 361.629C522.237 361.629 522.578 350.953 521.083 348.642" stroke="#0D173D" stroke-width="2" stroke-miterlimit="2.613" stroke-linecap="round" stroke-linejoin="round"/>
<path d="M514.354 388.404C514.354 388.404 512.657 382.892 508.715 380.174" stroke="#0D173D" stroke-width="2" stroke-miterlimit="2.613" stroke-linecap="round" stroke-linejoin="round"/>
<path d="M504.231 388.871C504.231 388.871 502.193 396.074 503.959 403.279C505.727 410.482 513.473 415.783 513.473 415.783" stroke="#0D173D" stroke-width="2" stroke-miterlimit="2.613" stroke-linecap="round" stroke-linejoin="round"/>
<path d="M518.431 470.633C518.431 470.633 518.083 476.43 518.5 480.01" stroke="#0D173D" stroke-width="2" stroke-miterlimit="2.613" stroke-linecap="round" stroke-linejoin="round"/>
<mask id="mask4_1406_10085" style="mask-type:luminance" maskUnits="userSpaceOnUse" x="545" y="190" width="53" height="25">
<path d="M545.821 190.612H597.411V214.919H545.821V190.612Z" fill="white"/>
</mask>
<g mask="url(#mask4_1406_10085)">
<g opacity="0.800003">
<path fill-rule="evenodd" clip-rule="evenodd" d="M596.724 190.613C596.491 191.765 595.104 201.46 597.412 207.301C580.92 213.484 550 216.037 545.877 214.467C545.785 212.683 545.687 210.981 546.663 207.792C546.663 207.792 546.869 204.22 547.164 199.409C580.036 198.663 585.092 190.467 596.724 190.613Z" fill="#1570EF"/>
</g>
</g>
<mask id="mask5_1406_10085" style="mask-type:luminance" maskUnits="userSpaceOnUse" x="415" y="363" width="51" height="30">
<path d="M415.737 363.375H465.092V392.037H415.737V363.375Z" fill="white"/>
</mask>
<g mask="url(#mask5_1406_10085)">
<g opacity="0.800003">
<path fill-rule="evenodd" clip-rule="evenodd" d="M453.018 363.374C453.045 364.548 463.401 369.174 465.093 376.036C444.183 382.907 425.827 391.742 416.699 392.036C416.219 390.316 416.225 389.358 416.481 386.032C416.481 386.032 416.502 381.55 415.737 376.791C447.65 368.867 441.637 365.776 453.018 363.374Z" fill="#1570EF"/>
</g>
</g>
<mask id="mask6_1406_10085" style="mask-type:luminance" maskUnits="userSpaceOnUse" x="345" y="68" width="28" height="21">
<path d="M345.877 68.8107H372.94V88.308H345.877V68.8107Z" fill="white"/>
</mask>
<g mask="url(#mask6_1406_10085)">
<g opacity="0.5">
<path fill-rule="evenodd" clip-rule="evenodd" d="M345.878 88.2331C345.878 88.2331 346.907 80.0371 348.675 77.7798C350.442 75.5211 362.907 69.7798 368.208 69.0918C373.51 68.4051 372.92 69.1904 372.92 69.1904C372.92 69.1904 371.546 82.6864 371.84 84.6504C369.682 87.1038 365.018 88.6758 345.878 88.2331Z" fill="#1570EF"/>
</g>
</g>
<mask id="mask7_1406_10085" style="mask-type:luminance" maskUnits="userSpaceOnUse" x="367" y="85" width="15" height="41">
<path d="M367.276 85.6813H381.705V125.355H367.276V85.6813Z" fill="white"/>
</mask>
<g mask="url(#mask7_1406_10085)">
<g opacity="0.5">
<path fill-rule="evenodd" clip-rule="evenodd" d="M375.276 85.681C375.276 85.681 379.448 87.2517 381.705 94.613C379.644 96.969 375.276 102.81 375.08 109.534C374.856 117.222 376.307 123.669 377.24 124.504C375.129 126.073 371.153 125.19 369.731 124.11C367.521 121.264 363.595 114.834 375.276 85.681Z" fill="#1570EF"/>
</g>
</g>
<mask id="mask8_1406_10085" style="mask-type:luminance" maskUnits="userSpaceOnUse" x="607" y="183" width="17" height="39">
<path d="M607.401 183.571H623.045V221.968H607.401V183.571Z" fill="white"/>
</mask>
<g mask="url(#mask8_1406_10085)">
<g opacity="0.5">
<path fill-rule="evenodd" clip-rule="evenodd" d="M616.036 183.57C616.036 183.57 623.423 192.134 623.031 197.632C622.638 203.129 621.631 203.792 620.454 208.601C618.956 214.714 616.846 217.214 615.472 218.982C612.724 221.926 608.43 223.521 608.232 219.792C608.036 216.061 607.104 211.766 607.498 208.233C607.89 204.7 606.81 194.565 616.036 183.57Z" fill="#1570EF"/>
</g>
</g>
<mask id="mask9_1406_10085" style="mask-type:luminance" maskUnits="userSpaceOnUse" x="598" y="185" width="12" height="22">
<path d="M598.851 185.511H609.927V206.511H598.851V185.511Z" fill="white"/>
</mask>
<g mask="url(#mask9_1406_10085)">
<g opacity="0.5">
<path fill-rule="evenodd" clip-rule="evenodd" d="M600.355 206.282C600.355 206.282 598.589 198.185 598.883 195.534C599.178 192.883 604.183 186.258 606.245 185.669C608.307 185.081 609.926 186.331 609.926 186.331C609.926 186.331 605.437 193.325 604.921 206.282C604.037 206.798 600.355 206.282 600.355 206.282Z" fill="#1570EF"/>
</g>
</g>
<mask id="mask10_1406_10085" style="mask-type:luminance" maskUnits="userSpaceOnUse" x="492" y="375" width="15" height="40">
<path d="M492.619 375.84H506.123V414.123H492.619V375.84Z" fill="white"/>
</mask>
<g mask="url(#mask10_1406_10085)">
<g opacity="0.5">
<path fill-rule="evenodd" clip-rule="evenodd" d="M494.638 375.84C494.638 375.84 501.117 383.104 501.902 386.54C502.687 389.976 499.055 398.319 506.122 413.828C501.902 414.811 499.154 413.24 497.681 410.589C496.209 407.939 489.239 388.993 494.638 375.84Z" fill="#1570EF"/>
</g>
</g>
<mask id="mask11_1406_10085" style="mask-type:luminance" maskUnits="userSpaceOnUse" x="463" y="367" width="27" height="10">
<path d="M463.62 367.203H489.731V376.408H463.62V367.203Z" fill="white"/>
</mask>
<g mask="url(#mask11_1406_10085)">
<g opacity="0.5">
<path fill-rule="evenodd" clip-rule="evenodd" d="M466.369 375.251C466.369 375.251 481.485 378.098 489.73 374.859C489.437 371.817 488.65 367.693 487.963 367.693C487.277 367.693 470.394 368.871 463.619 367.202C463.914 370.834 463.718 369.853 466.369 375.251Z" fill="#1570EF"/>
</g>
</g>
<mask id="mask12_1406_10085" style="mask-type:luminance" maskUnits="userSpaceOnUse" x="394" y="52" width="12" height="41">
<path d="M394.463 52.5027H405.663V92.9454H394.463V52.5027Z" fill="white"/>
</mask>
<g mask="url(#mask12_1406_10085)">
<g opacity="0.5">
<path fill-rule="evenodd" clip-rule="evenodd" d="M397.362 52.5033C397.362 52.5033 404.233 53.4352 405.411 64.2326C406.589 75.0312 403.645 86.6632 396.381 92.9446C392.846 84.3072 394.81 62.1219 397.362 52.5033Z" fill="#1570EF"/>
</g>
</g>
<mask id="mask13_1406_10085" style="mask-type:luminance" maskUnits="userSpaceOnUse" x="639" y="169" width="9" height="27">
<path d="M639.052 169.656H647.609V195.129H639.052V169.656Z" fill="white"/>
</mask>
<g mask="url(#mask13_1406_10085)">
<g opacity="0.5">
<path fill-rule="evenodd" clip-rule="evenodd" d="M646.294 169.656C646.294 169.656 652.037 191.89 639.521 195.128C638.049 192.038 639.964 177.314 646.294 169.656Z" fill="#1570EF"/>
</g>
</g>
<mask id="mask14_1406_10085" style="mask-type:luminance" maskUnits="userSpaceOnUse" x="511" y="346" width="10" height="37">
<path d="M511.001 346.196H520.632V382.712H511.001V346.196Z" fill="white"/>
</mask>
<g mask="url(#mask14_1406_10085)">
<g opacity="0.5">
<path fill-rule="evenodd" clip-rule="evenodd" d="M517.706 346.197C517.706 346.197 525.755 358.563 515.154 382.713C512.503 380.65 506.122 348.946 517.706 346.197Z" fill="#1570EF"/>
</g>
</g>
</svg>
